<?xml version="1.0" encoding="UTF-8" standalone="no"?>
<!-- Created with Inkscape (http://www.inkscape.org/) -->

<svg
   width="500mm"
   height="500mm"
   viewBox="0 0 500 500"
   version="1.1"
   id="svg5"
   inkscape:version="1.1.1 (3bf5ae0d25, 2021-09-20)"
   sodipodi:docname="Calamba,_Laguna_Sea_Newl.svg"
   xmlns:inkscape="http://www.inkscape.org/namespaces/inkscape"
   xmlns:sodipodi="http://sodipodi.sourceforge.net/DTD/sodipodi-0.dtd"
   xmlns="http://www.w3.org/2000/svg"
   xmlns:svg="http://www.w3.org/2000/svg">
  <sodipodi:namedview
     id="namedview7"
     pagecolor="#ffffff"
     bordercolor="#666666"
     borderopacity="1.0"
     inkscape:pageshadow="2"
     inkscape:pageopacity="0.0"
     inkscape:pagecheckerboard="0"
     inkscape:document-units="mm"
     showgrid="false"
     showguides="false"
     inkscape:guide-bbox="true"
     inkscape:snap-bbox="false"
     inkscape:bbox-paths="false"
     inkscape:bbox-nodes="false"
     inkscape:snap-bbox-edge-midpoints="false"
     inkscape:snap-bbox-midpoints="false"
     inkscape:snap-intersection-paths="true"
     inkscape:snap-global="true"
     inkscape:zoom="0.35355339"
     inkscape:cx="578.41335"
     inkscape:cy="1090.3587"
     inkscape:window-width="1920"
     inkscape:window-height="1027"
     inkscape:window-x="-8"
     inkscape:window-y="22"
     inkscape:window-maximized="1"
     inkscape:current-layer="layer4"
     inkscape:snap-nodes="false"
     inkscape:snap-smooth-nodes="false"
     inkscape:object-nodes="true"
     inkscape:object-paths="true"
     inkscape:lockguides="false"
     inkscape:snap-center="true">
    <sodipodi:guide
       position="0,500"
       orientation="944.88189,0"
       id="guide66362"
       inkscape:locked="false" />
    <sodipodi:guide
       position="0,250"
       orientation="0,944.88189"
       id="guide66364"
       inkscape:locked="false" />
    <sodipodi:guide
       position="250,250"
       orientation="-944.88189,0"
       id="guide66366"
       inkscape:locked="false" />
    <sodipodi:guide
       position="250,500"
       orientation="0,-944.88189"
       id="guide66368"
       inkscape:locked="false" />
  </sodipodi:namedview>
  <defs
     id="defs2">
    <rect
       x="-621.56687"
       y="1599.0309"
       width="290.73289"
       height="165.41699"
       id="rect129430" />
    <rect
       x="-67.34491"
       y="1697.8006"
       width="1885.6575"
       height="191.40132"
       id="rect53388" />
    <rect
       x="-50.911688"
       y="2177.8889"
       width="930.55252"
       height="214.96046"
       id="rect98881" />
    <rect
       x="100"
       y="2007"
       width="726"
       height="308"
       id="rect88977" />
    <rect
       x="40"
       y="2212"
       width="852"
       height="204"
       id="rect77131" />
    <rect
       x="-2307.9965"
       y="2409.8199"
       width="986.89148"
       height="878.67619"
       id="rect53957" />
    <rect
       x="528"
       y="-492"
       width="2952"
       height="524"
       id="rect3268" />
    <rect
       x="186"
       y="-124"
       width="1497"
       height="132"
       id="rect85702" />
    <rect
       x="8.4852813"
       y="-138.59293"
       width="1917.6736"
       height="164.04877"
       id="rect62492" />
    <inkscape:path-effect
       effect="bspline"
       id="path-effect52565"
       is_visible="true"
       lpeversion="1"
       weight="33.333333"
       steps="2"
       helper_size="0"
       apply_no_weight="true"
       apply_with_weight="true" />
    <clipPath
       clipPathUnits="userSpaceOnUse"
       id="clipPath30553">
      <g
         inkscape:label="Clip"
         id="use30555"
         style="display:inline;stroke:#000000;stroke-opacity:1">
        <path
           id="path1468"
           style="opacity:1;fill:#25274d;fill-opacity:1;stroke:#000000;stroke-width:1.01639px;stroke-linecap:butt;stroke-linejoin:miter;stroke-opacity:1"
           d="m 782.51367,1420 c 12.49988,0.9563 25.08998,0.8963 38.02735,0 z m 270.49613,0 c 11.571,0.8968 22.9158,0.9086 34.334,0 z m -376.38675,8.6504 c -16.37189,0.3361 -37.68375,10.421 -53.25,18.9512 132.11221,83.7728 325.16406,165.707 325.16406,165.707 0,0 171.44919,-82.2181 300.41019,-161.2598 -14.762,-8.7735 -40.9649,-22.8308 -59.795,-23.1679 -27.1635,-0.4864 -51.9303,25.1505 -79.0937,30.1347 -27.1634,4.9843 -52.7949,4.8191 -80.8145,0 -28.0195,-4.8191 -52.35285,-29.319 -84.36129,-29.9883 -32.00844,-0.6692 -65.73714,25.258 -97.16992,29.9883 -31.43278,4.7303 -59.81499,5.1663 -88.81641,0 -29.00144,-5.1662 -54.34514,-30.9386 -82.27343,-30.3652 z"
           transform="scale(0.26458333)" />
      </g>
    </clipPath>
    <rect
       x="-2307.9965"
       y="2409.8199"
       width="1184.8915"
       height="188.67618"
       id="rect15343" />
  </defs>
  <g
     inkscape:label="Layer 1"
     inkscape:groupmode="layer"
     id="layer1"
     style="display:inline">
    <path
       id="circle44514"
       style="display:inline;fill:#25274d;fill-opacity:1;stroke:#25274d;stroke-width:0;stroke-miterlimit:4;stroke-dasharray:none;stroke-opacity:1;paint-order:stroke fill markers"
       d="M 944.88281,22.882812 A 921.99999,921.99999 0 0 0 22.882812,944.88281 921.99999,921.99999 0 0 0 944.88281,1866.8828 921.99999,921.99999 0 0 0 1866.8828,944.88281 921.99999,921.99999 0 0 0 944.88281,22.882812 Z m 0,14.91211 A 907.08661,907.08661 0 0 1 1851.9688,944.88281 907.08661,907.08661 0 0 1 944.88281,1851.9688 907.08661,907.08661 0 0 1 37.794922,944.88281 907.08661,907.08661 0 0 1 944.88281,37.794922 Z"
       transform="scale(0.26458333)" />
    <ellipse
       style="display:inline;fill:#ecbd49;fill-opacity:1;stroke:#25274d;stroke-width:0;stroke-miterlimit:4;stroke-dasharray:none;stroke-opacity:1;paint-order:stroke fill markers"
       id="circle44576"
       cx="250"
       cy="250"
       sodipodi:insensitive="true"
       rx="240"
       ry="240.00011" />
    <ellipse
       style="display:inline;fill:#d0255a;fill-opacity:1;stroke:none;stroke-width:6;stroke-miterlimit:4;stroke-dasharray:none;stroke-opacity:1;paint-order:stroke fill markers"
       id="path34491"
       cx="250"
       cy="250"
       sodipodi:insensitive="true"
       rx="190.80269"
       ry="190.80267" />
    <path
       id="path23189"
       style="opacity:1;fill:#25274d;fill-opacity:1;fill-rule:evenodd;stroke-width:0.999999"
       d="m 944.88281,212.88281 a 732.00001,732.00001 0 0 0 -732,732 732.00001,732.00001 0 0 0 732,731.99999 732.00001,732.00001 0 0 0 731.99999,-731.99999 732.00001,732.00001 0 0 0 -731.99999,-732 z m 0,10.85547 A 721.14402,721.14396 0 0 1 1666.0254,944.88281 721.14402,721.14396 0 0 1 944.88281,1666.0254 721.14402,721.14396 0 0 1 223.73828,944.88281 721.14402,721.14396 0 0 1 944.88281,223.73828 Z"
       transform="scale(0.26458333)" />
  </g>
  <g
     inkscape:groupmode="layer"
     id="layer2"
     inkscape:label="Layer 2"
     style="display:inline;opacity:1">
    <path
       id="path54009"
       style="display:inline;fill:#ffffff;fill-opacity:1;stroke:#25274d;stroke-width:0;stroke-miterlimit:4;stroke-dasharray:none;stroke-opacity:1;paint-order:stroke fill markers"
       d="M 556.46094,423.04102 A 141.73228,141.73228 0 0 1 422.83008,556.67188 V 1131.582 c 0,0 12.22438,126.7556 113.19922,237.3418 106.67818,116.8323 408.85351,241.0567 408.85351,241.0567 0,0 289.86409,-131.2238 399.93949,-241.3516 106.6504,-106.7011 122.1113,-237.0469 122.1113,-237.0469 V 556.67188 A 141.73228,141.73228 0 0 1 1333.3027,423.04102 Z"
       transform="scale(0.26458333)" />
    <g
       id="g84550"
       transform="matrix(1.0286721,0,0,0.99993033,-8.9281222,0.54790751)"
       style="display:inline;fill:#ecbd49;fill-opacity:1;stroke:none;stroke-width:0.999803;stroke-miterlimit:4;stroke-dasharray:none"
       inkscape:label="g84550">
      <path
         style="fill:#ecbd49;fill-opacity:1;stroke:none;stroke-width:0.999803;stroke-linecap:butt;stroke-linejoin:miter;stroke-miterlimit:4;stroke-dasharray:none;stroke-opacity:1"
         d="m 296.48158,177.91008 c 0,0 0.59756,1.69568 1.31991,2.09503 0.72235,0.39935 3.0142,0.30107 3.0142,0.30107 0,0 1.54038,-2.49932 2.88941,-2.85418 1.34903,-0.35486 4.15792,1.12758 4.15792,1.12758 l 1.26852,-0.70473 0.91615,-3.10083 2.36088,-2.92465 -0.35238,-0.77521 c 0,0 -9.55343,1.66823 -13.46041,4.29888 -0.91313,0.61483 -2.1142,2.53704 -2.1142,2.53704 z"
         id="path3031"
         sodipodi:nodetypes="czczcccccac" />
      <path
         style="fill:#ecbd49;fill-opacity:1;stroke:none;stroke-width:0.999803;stroke-linecap:butt;stroke-linejoin:miter;stroke-miterlimit:4;stroke-dasharray:none;stroke-opacity:1"
         d="m 239.39396,210.64077 -1.49497,9.56779 c 0,0 12.9392,12.85175 20.58782,17.94588 7.64863,5.09412 24.95718,12.308 24.95718,12.308 l 7.32923,-13.38994 c 0,0 -16.49215,-1.48136 -27.45146,-9.83315 -10.95931,-8.35179 -23.9278,-16.59858 -23.9278,-16.59858 z"
         id="path3469"
         sodipodi:nodetypes="cczcczc" />
      <path
         style="fill:#ecbd49;fill-opacity:1;stroke:none;stroke-width:0.999803;stroke-linecap:butt;stroke-linejoin:miter;stroke-miterlimit:4;stroke-dasharray:none;stroke-opacity:1"
         d="m 216.21237,147.43034 c 0,0 -3.10083,8.15142 -4.58077,18.11166 -1.47994,9.96024 3.73509,25.159 3.73509,25.159 0,0 -13.22551,0.77521 -19.06305,-0.56379 -5.83755,-1.33899 -15.96223,-7.47018 -15.96223,-7.47018 l -1.47994,-5.21503 c 0,0 5.5674,-5.44994 9.83104,-10.53577 4.26364,-5.08583 15.7508,-19.97921 15.7508,-19.97921 z"
         id="path84585"
         sodipodi:nodetypes="czcsccscc" />
      <path
         style="fill:#ecbd49;fill-opacity:1;stroke:none;stroke-width:0.999803;stroke-linecap:butt;stroke-linejoin:miter;stroke-miterlimit:4;stroke-dasharray:none;stroke-opacity:1"
         d="m 307.61281,136.96754 c 0,0 -5.14044,3.556 -8.5578,4.73601 -3.41737,1.18002 -11.9464,2.34407 -11.9464,2.34407 0,0 -11.35693,-2.33478 -16.7364,-4.44898 -5.37947,-2.1142 -15.54042,-8.23623 -15.54042,-8.23623 l -6.95475,-0.33026 c 0,0 3.202,-4.29333 5.27641,-5.6925 2.07441,-1.39918 7.17004,-2.70257 7.17004,-2.70257 l 57.96146,0.92488 z"
         id="path53635"
         sodipodi:nodetypes="cscsccsccc" />
      <path
         style="opacity:1;fill:#ecbd49;fill-opacity:1;stroke:none;stroke-width:0.999803;stroke-linecap:butt;stroke-linejoin:miter;stroke-miterlimit:4;stroke-dasharray:none;stroke-opacity:1"
         d="m 194.84396,121.8896 1.79395,6.77719 c 0.61674,2.32991 3.76776,4.68601 5.68088,7.2755 1.91311,2.58948 6.0358,7.99962 6.0358,7.99962 l 12.40331,-0.21142 c 0,0 6.14557,-9.20714 10.06551,-12.8639 3.91993,-3.65676 13.4541,-9.07666 13.4541,-9.07666 z"
         id="path82159"
         sodipodi:nodetypes="cszccscc" />
      <path
         style="fill:#ecbd49;fill-opacity:1;stroke:none;stroke-width:0.999803;stroke-linecap:butt;stroke-linejoin:miter;stroke-miterlimit:4;stroke-dasharray:none;stroke-opacity:1"
         d="m 179.56621,192.25142 c 0,0 13.67184,22.7864 21.00107,32.34729 7.32923,9.56089 22.97432,25.01805 22.97432,25.01805 l 39.4651,-0.84568 c 0,0 -10.3361,-6.6245 -15.99746,-11.34622 -5.66136,-4.72172 -17.97071,-16.98409 -17.97071,-16.98409 0,0 -0.14811,-3.05954 0.25124,-4.53948 0.39935,-1.47994 2.14485,-4.34016 2.14485,-4.34016 0,0 -4.44483,-3.71868 -6.41809,-5.92685 -1.97325,-2.20817 -5.42144,-7.32215 -5.42144,-7.32215 0,0 -11.93349,0.37586 -18.60497,-0.63426 -6.67148,-1.01012 -21.42391,-5.42645 -21.42391,-5.42645 z"
         id="path84986"
         sodipodi:nodetypes="csccscscscsc" />
      <path
         id="path86199"
         style="fill:#ecbd49;fill-opacity:1;stroke:none;stroke-width:3.77878;stroke-linecap:butt;stroke-linejoin:miter;stroke-miterlimit:4;stroke-dasharray:none;stroke-opacity:1"
         d="m 901.63672,515.94141 c -6.99071,0.0279 -11.47461,0.25586 -11.47461,0.25586 0,0 -23.08433,23.35074 -31.96289,36.22461 -8.87853,12.87385 -21.3086,41.01953 -21.3086,41.01953 0,0 -10.61713,25.39354 -11.59374,38.08984 -0.97663,12.69634 5.73437,38.08789 5.73437,38.08789 0,0 7.86978,25.00953 22.58594,46.45117 14.71615,21.44168 36.27846,39.31617 36.54492,40.11524 l 6.40234,1.61133 c -2.4875,-3.35369 -6.65161,-8.61359 -10.22656,-16.83594 -4.94396,-11.37116 -7.1431,-18.53401 -8.66406,-28.27344 -2.32502,-14.88809 -4.33336,-34.95449 2.07226,-48.59375 7.38187,-16.83436 32.34044,-27.05773 54.75391,-17.60547 9.32661,4.01025 22.30178,17.82871 30.25,27 1.61573,-3.25598 2.65625,-5.4668 2.65625,-5.4668 l 2.66211,-12.51953 c 0,0 4.43918,-9.05549 7.85742,-12.31836 3.41824,-3.26286 12.65235,-7.25781 12.65234,-7.25781 l 25.30468,-23.57226 c 0,0 -1.9532,-37.91151 -37.02342,-79.64063 -12.71606,-15.13052 -56.25052,-16.85519 -77.22266,-16.77148 z m 21.24023,150.03711 c -10.26323,0.0151 -22.55386,3.70601 -28.25195,12.24218 -6.83248,10.23553 -4.28494,25.18347 -0.56445,36.91407 5.22504,16.47442 24.56147,39.10824 35.39843,50.93945 l 0.92383,0.23242 6.92383,-4.79492 6.92578,-26.36914 -0.16406,-0.65039 c -7.55268,-2.03239 -18.26243,-5.53676 -23.23047,-10.09766 -9.23452,-9.69437 -15.53671,-33.78786 -3.41406,-40.42383 3.59584,-1.82154 9.2443,-0.20298 11.75976,2.96094 5.6922,7.15956 -5.99691,21.03099 0.53321,27.43555 1.88787,1.85157 7.89558,1.12709 9.46875,0.82617 1.57317,-0.30091 4.89823,-7.63553 6.44531,-9.54883 0.17793,-0.22005 0.35628,-0.45386 0.53516,-0.68164 0.36231,-9.61201 0.39877,-25.58109 -3.13672,-30.32031 -4.37224,-5.8608 -12.84036,-8.67461 -20.15235,-8.66406 z"
         transform="scale(0.26458333)" />
      <path
         id="path91565"
         style="fill:#ecbd49;fill-opacity:1;stroke:none;stroke-width:3.77878;stroke-linecap:butt;stroke-linejoin:miter;stroke-miterlimit:4;stroke-dasharray:none;stroke-opacity:1"
         d="m 1169.1348,542.99023 c 0.3129,0.25059 -28.2212,23.80771 -66.9551,21.28321 -19.0948,-1.24453 -61.0235,-12.05469 -61.0235,-12.05469 l -3.0136,7.1582 c 0,0 11.3012,25.61377 13.373,38.60938 2.0718,12.9956 -0.9433,39.36328 -0.9433,39.36328 0,0 -11.5504,5.02277 -17.3262,9.98242 -5.7758,4.95969 -17.3281,19.77539 -17.3281,19.77539 0,0 -8.0125,9.48229 -10.0215,14.75586 -2.009,5.27358 -2.0332,16.88672 -2.0332,16.88672 l 22.6015,68.17969 c 0,0 -8.7655,14.49105 -17.7226,14.99414 -5.0146,0.28157 -12.32033,-10.10547 -12.32032,-10.10547 0,0 -2.06949,-11.3732 -2.03321,-16.17774 0.0563,-7.47412 -0.16992,-15.9121 -0.16992,-15.9121 0,0 -7.80765,-8.70886 -12.39063,-14.42188 -4.58297,-5.71306 -11.11132,-11.86719 -11.11132,-11.86719 l -3.01368,46.33399 -10.92382,24.10742 7.91015,27.12109 c 0,0 98.94295,47.462 125.24805,58.57422 26.3051,11.11223 32.582,8.09766 32.582,8.09766 0,0 9.4179,-2.00883 13.3731,-5.27344 3.9552,-3.2646 10.3574,-14.3125 10.3574,-14.3125 0,0 2.763,-8.16225 2.9199,-13.37305 0.1569,-5.21079 -1.9765,-17.89257 -1.9765,-17.89257 l 15.2558,-17.70313 c 0,0 1.7549,-2.41905 2.6172,-3.60156 -5.0929,-1.93119 -11.8228,-4.19002 -15.4258,-4.1211 -6.2436,0.11929 -9.069,3.17443 -13.6035,4.76172 -4.5345,1.58725 -9.3122,6.4619 -13.6035,4.76172 -4.2914,-1.70018 -5.4989,-7.40076 -6.1289,-11.7832 -1.0652,-7.40977 4.332,-22.03711 4.332,-22.03711 0,0 15.1549,-9.96552 21.7676,-19.51563 6.5559,-9.46809 8.5447,-18.21403 10.9102,-21.07226 10.5521,-12.75035 9.4556,-8.44712 10.6406,-24.95508 0.7407,-10.31932 -13.1836,-20.15234 -13.1836,-20.15234 0,0 -29.9133,5.92425 -41.2481,-1.88282 -3.8901,-2.67942 -9.4575,-5.64131 -9.2285,-10.35937 0.4386,-9.03851 6.1219,-18.07191 13.1836,-23.73047 11.4947,-9.21071 33.8141,-10.20042 52.1289,-14.16016 10.2627,-2.2188 19.2643,-5.37052 25.1992,-7.71289 l -0.4843,-6.94336 c 0,0 0.8893,-15.26479 -2.6368,-34.27929 -2.4335,-13.12286 -18.5507,-49.34571 -18.5507,-49.34571 z m 23.6425,118.88477 -10.1757,2.4082 c 0,0 -4.8669,12.29909 -3.5801,19.21094 1.3264,7.12464 9.561,11.47148 11.4902,18.45703 1.8721,6.77881 -0.7539,22.60156 -0.7539,22.60156 l -16.7617,6.4043 c 0,0 -2.9708,10.31148 -0.5664,16.19727 1.358,3.32447 6.2168,9.03906 6.2168,9.03906 l 9.416,-3.95508 0.064,0.10742 c 3.5385,-4.99818 21.4062,-0.67187 21.4062,-0.67187 l 11.6777,-2.44922 c 0,0 5.7769,-6.02722 5.4629,-9.98242 -0.3141,-3.9552 -5.8398,-14.50196 -5.8398,-14.50196 0,0 -10.2331,-15.56835 -14.8789,-25.61328 -4.6458,-10.04492 -12.9961,-34.65625 -12.9961,-34.65625 z m -5.2304,97.76758 c -4.4566,1.24979 -11.3051,3.23527 -15.4942,4.83789 -6.401,2.44887 -12.9561,4.84156 -18.6445,8.66406 -5.9732,4.01386 -16.9895,7.59047 -15.8203,14.69141 0.5478,3.32727 5.8571,4.07606 9.2285,4.14258 5.5482,0.1093 10.0244,-5.01931 15.4434,-6.21485 4.7184,-1.04097 12.7014,-1.19574 17.6015,-1.18359 3.8882,-6.14064 7.4653,-13.46936 8.1504,-20.37891 0.2003,-2.02 -0.1013,-3.39903 -0.4648,-4.55859 z"
         transform="scale(0.26458333)" />
    </g>
    <path
       style="display:inline;opacity:1;fill:#23264a;fill-opacity:1;stroke:none;stroke-width:0.265014px;stroke-linecap:butt;stroke-linejoin:miter;stroke-opacity:1"
       d="m 111.00067,298.4874 c 0,0 7.71861,-7.38455 13.19949,-9.44361 3.61799,-1.35921 7.93345,1.22451 11.59955,0 3.88104,-1.2963 9.27573,-7.41413 13.2392,-8.43297 2.28223,-0.58667 4.38416,-0.22828 6.73515,-0.0618 1.79541,0.12716 0.42492,0.0149 2.2248,0 4.00026,-0.0332 8.38664,1.51247 11.99953,-0.19933 2.99101,-1.41714 3.36133,-6.26086 6.39976,-7.57396 3.49104,-1.5087 7.64547,1.21692 11.39957,0.59794 1.41672,-0.2336 2.78882,-0.82545 3.99984,-1.5945 2.54549,-1.61652 4.16498,-4.40092 6.59975,-6.17878 4.62247,-3.37532 9.32589,-7.56867 14.99943,-8.37123 2.91384,-0.41218 5.93194,0.75446 8.59967,1.99315 3.62566,1.68348 5.68967,6.33494 9.59963,7.17534 3.00399,0.64568 5.97835,-1.43346 8.99965,-1.99315 2.651,-0.49108 5.34362,-0.73293 7.99971,-1.19589 2.00903,-0.35017 4.08396,-0.49868 5.99977,-1.19589 1.42931,-0.52017 2.54618,-1.74424 3.99984,-2.19246 2.62351,-0.80893 5.46463,-0.55073 8.19968,-0.79726 1.59895,-0.14412 3.25506,-0.83458 4.79981,-0.39864 1.51382,0.42721 2.23555,2.95797 3.79988,2.79042 2.20731,-0.23641 2.21219,-4.60633 4.39983,-4.98287 2.70533,-0.46565 4.75919,2.73313 7.19969,3.98629 1.37837,0.70778 2.6537,2.1097 4.19986,1.99315 2.489,-0.18763 3.7649,-3.63783 6.19976,-4.18561 3.88103,-0.87313 8.10916,0.31195 11.79955,1.79384 2.57334,1.03333 4.63667,3.05209 6.79972,4.78355 3.93675,3.15124 6.68902,7.90328 11.1996,10.16507 6.18986,3.10387 14.45361,0.43967 20.3992,3.98628 1.62596,0.9699 2.19697,3.1154 3.59988,4.38495 4.92779,4.45937 10.43491,8.55973 16.59935,11.06196 6.40577,2.60018 20.39922,3.78699 20.39922,3.78699 0,0 -1.88111,10.29402 -6.84456,23.54264 -4.96344,13.24862 -13.00923,29.45184 -25.33859,41.27025 -12.32935,11.81841 -38.87174,27.78172 -62.33179,40.79042 -23.46004,13.00871 -43.83775,23.06282 -43.83775,23.06282 0,0 -21.20776,-9.25628 -45.37866,-21.85633 -24.1709,-12.60005 -51.30494,-28.54387 -63.15749,-41.91892 -23.70512,-26.75012 -30.30053,-64.59189 -30.30053,-64.59189 z"
       id="path2308"
       sodipodi:nodetypes="csssssssssssssssssssssssssssssscssscsscc" />
    <g
       id="g2575"
       transform="matrix(0.9902403,0,0,0.99993033,2.9230243,0.01874084)"
       inkscape:label="g2575"
       style="opacity:1">
      <path
         id="path1160"
         style="fill:#cccccc;fill-opacity:1;stroke:none;stroke-width:0.999999px;stroke-linecap:butt;stroke-linejoin:miter;stroke-opacity:1"
         d="m 764.29297,1122.1426 c 0,0 -53.0119,28.7328 -68.03711,46.8945 0.0151,-2.0079 0.73263,-4.1368 0.0449,-6.0234 -1.61968,-1.5346 -3.30558,-3.0566 -3.38867,-3.3907 -0.82095,-1.1727 -1.71394,-2.2977 -2.63867,-3.3906 -0.4588,-0.5422 -1.01906,-0.9885 -1.50586,-1.5058 -1.52247,-1.6176 -2.80476,-3.4843 -4.51953,-4.8965 -2.16061,-1.7793 -8.55785,-5.0438 -11.49024,-6.2168 -0.73735,-0.2948 -1.58636,-0.3313 -2.25976,-0.752 -5.02848,-3.1428 -2.89405,-3.6731 -9.03907,-6.4043 -2.37868,-1.0572 -9.15113,-1.6472 -11.30078,-1.8828 -16.27331,1.1711 -39.81715,-1.5333 -51.98242,8.4746 -3.29858,2.7488 -6.26431,7.5871 -10.92383,8.4746 -2.07099,0.3945 -1.96612,-0.3769 -4.14453,-0.3769 -0.12548,0 -0.0937,0.2934 0,0.3769 0.50755,0.4512 1.113,0.7815 1.69531,1.1309 1.92979,1.1578 3.92584,2.2038 5.83789,3.3906 26.56985,3.2161 51.83163,7.1535 72.51172,21.0938 1.54405,0.9398 3.4488,1.1165 5.08594,1.8828 1.3262,0.6208 2.3752,1.8084 3.76758,2.2617 0.0782,0.026 8.72268,0.7434 8.85156,0.752 0.37569,0.026 0.76546,-0.091 1.13086,0 2.34699,-0.4372 3.61575,0.1189 3.95508,1.6953 -2.37259,4.9752 -4.51288,10.5575 -6.48438,16.2031 -0.53652,0.1627 -1.06469,0.3392 -1.58203,0.5332 -3.82276,1.4336 -8.06963,8.5714 -12.51953,10.9199 -5.51187,2.9091 -5.79716,1.2698 -9.85547,5.3281 -0.57879,0.5788 -1.21248,1.1431 -1.59765,1.8653 -1.44329,2.7061 0.31397,6.2476 -0.53321,8.789 -0.25889,0.7767 -1.17654,1.1634 -1.59765,1.8653 0.0236,1.2559 0.49634,0.8225 -0.90821,1.7148 -8.02771,-13.5683 -20.10417,-32.8367 -29.36523,-41.4433 -14.65928,-13.6235 -50.25781,-25.9278 -50.25781,-25.9278 0,0 22.14721,18.5642 31.15625,29.1114 9.00903,10.5471 22.89843,34.1718 22.89844,34.1718 l -23.91993,-19.0234 c 0,0 -2.26996,-12.9718 -7.15625,-16.3848 -12.78761,-8.9318 -35.29617,-6.7517 -46.70898,-2.8261 -11.41281,3.9255 -13.29175,7.7593 -19.21094,16.9511 -5.91919,9.1919 -11.67773,38.2344 -11.67773,38.2344 0,0 19.8041,-15.2523 26.55664,-20.7187 6.75254,-5.4671 7.82358,-9.4471 14.125,-11.8653 6.30141,-2.4182 22.03515,-0.7539 22.03515,-0.7539 l 20.5293,0.7539 27.6875,44.4492 1.50586,19.3985 c 0,0 -8.60791,-22.3693 -15.04297,-32.8223 -6.43502,-10.453 -23.56641,-29.8945 -23.56641,-29.8945 l -14.8789,0.9414 c 0,0 -7.60903,2.3217 -11.92578,16.9902 -0.53435,1.8158 5.33398,17.0996 5.33398,17.0996 0,0 9.14431,-12.1672 12.25196,-14.5215 3.10761,-2.3543 6.39257,0.3965 6.39257,0.3965 0,0 42.18946,59.1387 42.18946,108.4844 l -0.94141,5.6504 h 86.82617 c 0,0 -1.38187,-17.4532 -0.2832,-26.1797 l 6.875,-26.1797 c 0,0 9.16507,-17.2018 13.74805,-25.8027 4.58298,-8.601 13.75,-25.8028 13.75,-25.8028 l -0.16407,-0.6445 c 3.09018,-0.1901 6.2039,-1.4144 9.22071,-0.7715 2.43295,0.5185 4.0504,2.8921 6.12695,4.2617 2.0976,1.3835 4.21085,2.7475 6.39258,3.9942 1.55134,0.8865 3.29944,1.4187 4.79492,2.3965 13.45576,8.798 5.37317,6.1319 22.64062,13.8515 3.51546,1.5716 9.57491,2.3039 13.05079,5.0606 0.0264,0.023 4.44055,4.4127 5.06054,5.8594 0.24756,0.577 0.2226,2.4915 0.26758,1.8652 0.62944,-8.8117 -0.82707,-17.5404 -3.73047,-25.8359 -1.87782,-5.3653 -4.51115,-11.9384 -9.32226,-15.4493 -1.99272,-1.4541 -4.28115,-2.4528 -6.39258,-3.7285 -2.15074,-1.2995 -4.16013,-2.8427 -6.39258,-3.9961 -3.10745,-1.6055 -6.612,-2.4236 -9.58789,-4.2617 -7.73238,-1.4297 -8.73147,-10.0479 -14.11719,-13.8496 -6.00366,-4.2379 -8.02301,-2.8861 -13.58398,-0.8008 -0.29972,0.1123 -0.57244,0.3068 -0.79883,0.5332 -0.22621,0.2264 -0.24709,0.942 -0.5332,0.7989 -0.31748,-0.1588 0.21732,-0.7837 0,-1.0645 -1.34408,-1.7394 -2.75766,-3.491 -4.52735,-4.7949 -1.66254,-1.225 -3.68316,-1.8803 -5.59375,-2.6641 -1.18397,-0.4857 -2.00335,-0.8048 -2.64062,-1.0312 8.36053,-11.6777 17.36328,-23.1993 17.36328,-23.1993 l 5.48633,-4.7636 c 0.36537,-0.036 0.73067,-0.072 1.09961,-0.037 1.12361,0.1045 9.15979,3.5315 10.65429,3.9941 5.43678,1.6828 6.35599,1.0496 10.91993,3.1973 12.33192,5.1954 18.72972,14.7152 28.76562,23.4394 0.30501,0.2543 0.73608,0.3129 1.06641,0.5332 1.80351,1.2023 3.49752,2.5649 5.32617,3.7285 0.44942,0.2862 4.4194,0.6998 5.86133,0.7989 0.15367,0.011 4.66037,-0.1712 5.59179,-0.5332 1.10205,-0.4286 2.10133,-1.0881 3.17383,-1.586 -0.889,0.051 -2.21966,0.27 -2.90625,-0.2793 -0.25001,-0.2 -0.30254,-1.0834 -2.66406,-5.5918 -1.81833,-3.4713 -4.56678,-7.4943 -5.85938,-11.1875 -0.29915,-0.8546 -0.28904,-1.7921 -0.5332,-2.664 -0.69483,-2.4815 -2.37246,-6.94 -3.46289,-9.0567 -0.67672,-1.3136 -1.62962,-2.4654 -2.39648,-3.7285 -0.74298,-1.2237 -1.36226,-2.5207 -2.13086,-3.7285 -8.80244,-12.6739 -21.52881,-20.8951 -37.02344,-23.4395 -6.14696,0.1695 -11.68805,-2.1386 -17.04688,-3.996 -3.59423,-1.2296 -12.71494,1.0337 -17.5625,2.123 10.83711,-13.6431 20.60938,-25.0449 20.60938,-25.0449 z m 70.97656,86.5937 c 0.10184,-0.01 0.20055,-0.012 0.28906,-0.012 0.0888,0 -0.18474,-0.038 -0.26562,0 -0.008,0 -0.0155,0.01 -0.0234,0.012 z m -195.93359,-66.0195 c 0.9707,0.01 2.15591,0.053 3.75781,0.1445 1.64436,0.094 3.2766,0.3714 4.89844,0.6582 6.54463,1.1579 8.21045,1.3483 14.125,4.4258 7.66696,3.9893 12.51864,11.5297 19.21093,16.7637 l -0.1875,-0.377 c 0.18819,0.2511 0.39022,0.4908 0.56446,0.752 0.0189,0.026 0.0265,0.1108 0,0.096 -0.29779,-0.1985 -0.55437,-0.4549 -0.84766,-0.6602 -0.60964,-0.4266 -1.34537,-0.644 -1.97851,-1.0351 -0.45948,-0.2837 -0.86637,-0.6459 -1.31836,-0.9414 -3.40075,-2.2235 -6.90506,-4.3828 -9.98243,-7.0645 -4.996,-4.3537 -0.94965,-1.7573 -5.46093,-4.707 -0.80206,-0.5244 -1.55604,-1.1605 -2.44922,-1.5078 -1.39079,-0.5409 -2.88784,-0.7532 -4.33203,-1.1289 -0.84733,-0.2206 -1.68533,-0.475 -2.54102,-0.6602 -1.02901,-0.2231 -2.09356,-0.2806 -3.10742,-0.5644 -4.64296,-1.3001 -3.26197,-1.6753 -8.09961,-2.4493 -1.09606,-0.175 -2.96753,-0.063 -4.23828,-0.094 -3.94828,-0.094 -1.28131,0 -4.80273,-0.377 -1.03431,-0.1099 -2.08745,-0.077 -3.10743,-0.2812 -0.13077,-0.027 0.38567,0.011 0.47071,0 0.37689,-0.029 0.75593,-0.047 1.13086,-0.096 4.41317,-0.5763 5.38281,-0.916 8.29492,-0.8965 z m 86.82617,27.7598 c 0.0697,0.2408 0.035,0.535 0.19141,0.6914 0.86989,0.883 1.88193,1.8969 2.66406,3.1972 0.65371,0.7627 1.57364,1.2951 2.13086,2.1309 1.59375,2.3906 0.26005,3.0768 2.92968,4.793 0.0438,0.028 1.80065,0.3416 2.39649,0.2675 1.95613,-0.2445 3.90324,-0.5543 5.85937,-0.7988 0.17632,-0.023 0.38543,0.098 0.53321,0 2.19344,-1.4624 -0.0299,-1.5254 2.86523,-2.5019 l -17.75586,22.5488 c -2.93014,-0.5269 -5.86958,-1.0097 -8.81445,-1.4024 -0.52804,-0.07 -1.07215,0.088 -1.59766,0 -0.97912,-0.1634 -1.94136,-0.4647 -2.93164,-0.5332 -1.37341,-0.095 -2.7528,-0.057 -4.13281,-0.021 2.74928,-6.3692 5.59516,-12.405 8.35742,-17.1856 1.90248,-3.2925 4.49305,-7.1567 7.30469,-11.1855 z m -68.28906,63.0429 c 2.83816,0.033 7.19651,1.0123 12.46093,2.0528 -1.93555,15.9102 -1.71875,33.666 -1.71875,33.666 l -8.85156,0.7539 -0.5664,-24.6738 c -6.56164,-9.2835 -6.05449,-11.8542 -1.32422,-11.7989 z m 37.18554,6.6192 c 0.58139,0.088 1.16394,0.1688 1.7461,0.2519 l -3.14063,3.9864 c 0,0 0.82143,-2.4902 1.39453,-4.2383 z m 42.53711,1.6191 c -0.58253,0.6075 -1.00132,1.3457 -1.17773,2.2422 l -32.01758,50.0996 2.07227,-30.3223 c 0,0 4.89779,-10.3272 10.64062,-21.7812 z"
         transform="scale(0.26458333)"
         sodipodi:nodetypes="ccccsssscsccsscsccscccccsssssccscsccsssccsccccsccscsccccccsccssssscscsssscsssscssccccscccscscssssssccccccsscsscscsccccssssssscccccccccccccsscccccccscsscsccccscccccccccc" />
      <path
         id="path2312"
         style="opacity:1;fill:#cccccc;fill-opacity:1;stroke:none;stroke-width:0.999999px;stroke-linecap:butt;stroke-linejoin:miter;stroke-opacity:1"
         d="M 1369.6465,1341.4609 H 514.01758 c 6.86789,9.3896 14.17869,18.5937 22.01172,27.4629 18.44807,20.8886 46.8052,43.4352 80.06054,66.0625 h 640.98046 c 35.987,-23.6395 67.1492,-46.5413 87.752,-66.3574 8.8535,-8.5155 17.112,-17.6401 24.8242,-27.168 z"
         transform="scale(0.26458333)" />
      <path
         id="rect51650"
         style="opacity:1;fill:#cccccc;fill-opacity:1;stroke:none;stroke-width:3.88686;stroke-miterlimit:4;stroke-dasharray:none;paint-order:stroke fill markers"
         d="m 1344.9238,1133.9121 v 83.582 h -28.5918 v -64 h -77.6621 v 122.8164 h -58.8613 v -88.6777 h -110.6641 v 88.6777 h -28.2832 v -32.4628 h -26.164 v 32.4628 h -15.20121 v -30.7421 h -26.16406 v 30.7421 H 930.6875 v 69.9981 h 451.1602 c 24.6794,-31.2913 46.4857,-65.9935 63.8434,-101.4906 17.2719,-35.3216 30.1618,-71.4012 40.1527,-110.9059 z"
         transform="matrix(0.25720862,0,0,0.26460177,6.9682312,-0.01874215)"
         sodipodi:nodetypes="cccccccccccccccccccccscc" />
    </g>
    <path
       id="rect36123"
       style="display:inline;fill:none;fill-opacity:1;stroke:#25274d;stroke-width:15.1181;stroke-miterlimit:4;stroke-dasharray:none;stroke-opacity:1;paint-order:stroke fill markers"
       d="M 556.46094,423.04102 A 141.73228,141.73228 0 0 1 422.83008,556.67188 V 1131.582 c 0,0 12.22438,126.7556 113.19922,237.3418 106.67818,116.8323 408.85351,241.0567 408.85351,241.0567 0,0 289.86409,-131.2238 399.93949,-241.3516 106.6504,-106.7011 122.1113,-237.0469 122.1113,-237.0469 V 556.67188 A 141.73228,141.73228 0 0 1 1333.3027,423.04102 Z"
       transform="scale(0.26458333)" />
    <g
       id="g49417"
       style="stroke:#000000;stroke-opacity:1"
       transform="translate(0.52916663,-2.6458334)">
      <path
         id="path49074"
         style="fill:#23264b;fill-opacity:1;stroke:none;stroke-width:1.0224px;stroke-linecap:butt;stroke-linejoin:miter;stroke-opacity:1"
         d="m 676.62305,1386.6504 c -27.92826,0.5733 -72.80664,30.3652 -72.80664,30.3652 l -17.32422,-0.1287 39.06836,29.5779 c 15.61414,-8.6741 34.14231,-17.4671 51.0625,-17.8144 27.92829,-0.5734 53.27199,25.199 82.27343,30.3652 29.00142,5.1663 57.38363,4.7303 88.81641,0 31.43278,-4.7303 65.16148,-30.6575 97.16992,-29.9883 32.00844,0.6693 56.34179,25.1692 84.36129,29.9883 28.0196,4.8191 53.6511,4.9843 80.8145,0 27.1634,-4.9842 51.9302,-30.6211 79.0937,-30.1347 19.4088,0.3474 39.421,12.6414 53.8449,21.3122 11.7895,-7.7237 29.7131,-18.1607 53.6866,-34.9453 l -36.3127,1.7678 c 0,0 -44.0553,-29.6484 -71.2188,-30.1347 -27.1635,-0.4864 -51.9303,25.1505 -79.0937,30.1347 -27.1634,4.9843 -52.7949,4.8191 -80.8145,0 -28.0195,-4.8191 -52.35285,-29.319 -84.36129,-29.9883 -32.00844,-0.6692 -65.73714,25.258 -97.16992,29.9883 -31.43278,4.7303 -59.81499,5.1663 -88.81641,0 -29.00144,-5.1662 -54.34514,-30.9386 -82.27343,-30.3652 z"
         transform="scale(0.26458333)"
         sodipodi:nodetypes="scccssssssscccsssssss" />
      <path
         id="path21530-45"
         style="fill:#23264c;fill-opacity:1;stroke:none;stroke-width:1.16454px;stroke-linecap:butt;stroke-linejoin:miter;stroke-opacity:1"
         d="m 676.62305,1455.6699 c -5.84506,0.1557 -12.44191,2.0281 -19.20508,4.8028 30.49371,19.7694 63.80238,40.7546 89.20898,55.0175 19.17563,10.765 45.869,24.3988 73.33203,38.043 9.04154,-0.7902 18.25657,-2.1242 27.75391,-3.9785 31.43278,-6.1371 65.16148,-39.7746 97.16992,-38.9063 32.00844,0.8683 56.34179,32.6541 84.36129,38.9063 10.6657,2.3799 20.9838,3.8799 31.1739,4.4746 31.1743,-16.3522 62.3402,-33.154 84.3574,-46.1934 19.7797,-11.7143 44.6274,-27.7964 69.416,-44.2734 -8.7788,-4.326 -17.5508,-7.4218 -25.0391,-7.5957 -27.1635,-0.6309 -51.9303,32.6311 -79.0937,39.0977 -27.1634,6.4665 -52.7949,6.2522 -80.8145,0 -28.0195,-6.2523 -52.35285,-38.038 -84.36129,-38.9063 -32.00844,-0.8683 -65.73714,32.7692 -97.16992,38.9063 -31.43278,6.137 -59.81499,6.7025 -88.81641,0 -29.00144,-6.7027 -54.34514,-40.1384 -82.27343,-39.3946 z"
         transform="scale(0.26458333)" />
      <path
         id="path21530-4-8"
         style="fill:#ffffff;fill-opacity:1;stroke:none;stroke-width:1.04236px;stroke-linecap:butt;stroke-linejoin:miter;stroke-opacity:1"
         d="m 944.88281,1508.9512 c -32.00844,-0.6957 -65.73714,26.2531 -97.16992,31.1699 -16.28909,2.548 -31.75671,3.8844 -46.91797,3.8457 22.4408,11.3355 46.42681,23.0923 68.39844,33.6953 25.0165,-9.5433 50.8688,-25.5941 75.68945,-25.0547 25.62497,0.5569 46.33294,16.9701 67.94919,26.0723 21.1694,-10.8341 44.427,-22.899 67.1035,-34.9609 -16.6026,0.7739 -33.1805,-0.4673 -50.6914,-3.5977 -28.0195,-5.0091 -52.35285,-30.4743 -84.36129,-31.1699 z"
         transform="scale(0.26458333)" />
      <path
         id="path21530-4"
         style="fill:#ffffff;fill-opacity:1;stroke:none;stroke-width:1.0224px;stroke-linecap:butt;stroke-linejoin:miter;stroke-opacity:1"
         inkscape:label="path21530-4"
         d="m 676.62305,1428.6504 c -13.51166,0.2774 -30.96318,7.3969 -45.40821,14.6699 11.84175,7.8117 24.11694,15.6777 37.47071,24.2637 2.74236,-0.4817 5.42455,-0.8391 7.9375,-0.8906 27.92829,-0.5734 53.27199,25.199 82.27343,30.3652 29.00142,5.1662 57.38363,4.7303 88.81641,0 31.43278,-4.7303 65.16148,-30.6576 97.16992,-29.9883 32.00844,0.6693 56.34179,25.1692 84.36129,29.9883 28.0196,4.8191 53.6511,4.9842 80.8145,0 27.1634,-4.9843 51.9302,-30.6211 79.0937,-30.1348 4.8422,0.087 10.2323,1.1275 15.8028,2.7344 11.6817,-7.7044 23.0455,-15.3936 34.4394,-23.1035 -15.0653,-8.1846 -35.1583,-17.4038 -50.2422,-17.6738 -27.1635,-0.4864 -51.9303,25.1505 -79.0937,30.1347 -27.1634,4.9843 -52.7949,4.8191 -80.8145,0 -28.0195,-4.8191 -52.35285,-29.319 -84.36129,-29.9883 -32.00844,-0.6692 -65.73714,25.258 -97.16992,29.9883 -31.43278,4.7303 -59.81499,5.1663 -88.81641,0 -29.00144,-5.1662 -54.34514,-30.9386 -82.27343,-30.3652 z"
         transform="scale(0.26458333)" />
      <path
         id="path21530"
         style="fill:#25274d;fill-opacity:1;stroke:none;stroke-width:1.06839px;stroke-linecap:butt;stroke-linejoin:miter;stroke-opacity:1"
         d="m 944.88281,1547.0156 c -26.47236,-0.6044 -54.11841,18.6257 -80.67187,28.2285 19.10232,9.2403 36.19137,17.386 50.06445,23.9512 10.28871,-3.8962 20.53413,-6.5464 30.60742,-6.3164 9.66665,0.2207 18.62551,2.8353 27.20508,6.4941 12.48731,-6.2873 27.99071,-14.1418 45.38481,-23.0625 -23.32799,-8.9353 -45.13826,-28.6681 -72.58989,-29.2949 z"
         transform="scale(0.26458333)" />
    </g>
  </g>
  <g
     inkscape:groupmode="layer"
     id="layer4"
     inkscape:label="1">
    <g
       id="g132338">
      <g
         aria-label="LUNGSOD NG CALAMBA"
         id="text58783"
         style="font-size:38.8056px;line-height:1.25;letter-spacing:3.96875px;word-spacing:5.29167px;display:inline;fill:#25274d;stroke-width:0.336591">
        <path
           d="m 21.449377,220.9966 1.42814,-8.46382 20.645747,3.48365 2.228908,-13.20954 6.7449,1.1381 -3.657048,21.67336 z"
           style="font-size:38.8056px;font-family:'Arial Black';-inkscape-font-specification:'Arial Black, '"
           id="path141881" />
        <path
           d="m 33.636571,171.15767 2.759218,-8.10788 15.677621,5.33531 q 2.331911,0.79358 4.162411,2.23714 1.818666,1.41953 2.848165,3.5112 1.017665,2.06764 1.065563,3.98538 0.07316,2.66691 -1.056163,5.9854 -0.653178,1.91934 -1.697512,4.10587 -1.038229,2.16859 -2.34637,3.42471 -1.32608,1.25001 -3.230395,2.02303 -1.89821,0.75507 -3.617513,0.69037 -2.767677,-0.10124 -4.704958,-0.76052 l -15.67762,-5.3353 2.759217,-8.10788 16.054314,5.4635 q 2.152534,0.73253 3.775198,-0.0363 1.61083,-0.79283 2.331157,-2.90949 0.714222,-2.09872 -0.06678,-3.68551 -0.792832,-1.61083 -2.981242,-2.35557 z"
           style="font-size:38.8056px;font-family:'Arial Black';-inkscape-font-specification:'Arial Black, '"
           id="path141883" />
        <path
           d="m 42.403376,149.54824 3.902825,-7.00061 18.515024,-1.65283 -13.421976,-7.48272 3.939731,-7.06681 24.262167,13.5261 -3.939731,7.06681 -18.388045,1.65854 13.322677,7.42736 -3.930505,7.05026 z"
           style="font-size:38.8056px;font-family:'Arial Black';-inkscape-font-specification:'Arial Black, '"
           id="path141885" />
        <path
           d="m 86.186835,114.65744 -4.463303,-3.67117 8.425657,-10.24365 9.146111,7.52291 q -0.414539,4.59041 -1.548531,7.46048 -1.136589,2.84339 -3.68836,5.94576 -3.141566,3.81941 -6.43002,5.16272 -3.276417,1.32868 -6.947297,0.5419 -3.658844,-0.80141 -6.995346,-3.54576 -3.512106,-2.8888 -4.910657,-6.46803 -1.413184,-3.59127 -0.460491,-7.49369 0.754463,-3.03504 3.787699,-6.72275 2.924907,-3.556009 5.013191,-4.782449 2.100321,-1.241075 4.412158,-1.277735 2.30924,-0.06333 4.868703,1.060523 l -4.118582,7.333821 q -1.539594,-0.60393 -2.965862,-0.18235 -1.414232,0.40695 -2.617897,1.87033 -1.793462,2.18043 -1.342811,4.73465 0.448054,2.52755 3.726021,5.22376 3.482839,2.86472 6.046746,2.79005 2.575944,-0.0893 4.501809,-2.4307 0.914785,-1.11217 1.423371,-2.38671 0.508586,-1.27453 0.804258,-3.21488 l -2.019462,-1.66106 z"
           style="font-size:38.8056px;font-family:'Arial Black';-inkscape-font-specification:'Arial Black, '"
           id="path141887" />
        <path
           d="m 101.75762,98.477789 5.83423,-5.737335 q 1.50397,1.329184 2.80231,1.582623 2.10693,0.404919 3.96777,-1.209027 1.38848,-1.204252 1.57415,-2.49397 0.18757,-1.316448 -0.55733,-2.175301 -0.70765,-0.815911 -1.98204,-0.839303 -1.27438,-0.02339 -4.37617,1.663563 -5.09744,2.740607 -8.29341,2.728428 -3.210284,2.37e-4 -5.345659,-2.46181 -1.402891,-1.617508 -1.713963,-3.855903 -0.309172,-2.265125 0.858338,-4.707396 1.16941,-2.469001 4.447368,-5.312028 4.022296,-3.488606 7.430056,-3.810612 3.40967,-0.348736 6.64108,2.567289 l -5.8018,5.659046 q -1.47243,-1.206054 -2.81838,-1.167371 -1.33164,0.02627 -2.70581,1.218105 -1.13082,0.980782 -1.28128,1.964065 -0.16288,0.968968 0.43304,1.656051 0.43452,0.500998 1.25451,0.492102 0.81809,0.01783 2.84617,-1.114107 5.04588,-2.771134 7.69749,-3.415511 2.65351,-0.671106 4.68799,-0.0027 2.04879,0.655997 3.53859,2.373704 1.75051,2.018306 2.11138,4.690066 0.36087,2.671761 -0.8734,5.297338 -1.24667,2.611263 -4.2956,5.255651 -5.35353,4.643194 -9.20253,4.369704 -3.849,-0.2735 -6.8771,-3.215367 z"
           style="font-size:38.8056px;font-family:'Arial Black';-inkscape-font-specification:'Arial Black, '"
           id="path141889" />
        <path
           d="m 125.38004,72.649733 q -3.53628,-5.81091 -2.26907,-11.018258 1.2672,-5.207348 7.04574,-8.723927 5.92421,-3.605232 11.06964,-2.366887 5.13557,1.222159 8.6226,6.952137 2.53154,4.1599 2.74864,7.687634 0.22343,3.501697 -1.52491,6.606303 -1.74199,3.078569 -5.69147,5.482057 -4.01422,2.44289 -7.43078,2.769774 -3.40037,0.317035 -6.71961,-1.45595 -3.31923,-1.772984 -5.85078,-5.932883 z m 7.35213,-4.429841 q 2.18678,3.593376 4.46955,4.355725 2.29896,0.752499 4.59742,-0.646252 2.36321,-1.438153 2.72234,-3.763887 0.35913,-2.325735 -2.06406,-6.307584 -2.03903,-3.350581 -4.33447,-4.060857 -2.2891,-0.736312 -4.60375,0.672289 -2.21754,1.3495 -2.60552,3.737159 -0.38799,2.387658 1.81849,6.013407 z"
           style="font-size:38.8056px;font-family:'Arial Black';-inkscape-font-specification:'Arial Black, '"
           id="path141891" />
        <path
           d="m 154.99695,39.948089 11.8762,-4.644382 q 3.51169,-1.373301 6.03724,-1.262305 2.54319,0.104094 4.65192,1.334326 2.10874,1.230231 3.66875,3.346446 1.56002,2.116216 2.59517,4.763214 1.62174,4.146964 1.56595,6.813684 -0.045,2.642173 -1.11418,4.850675 -1.07605,2.190855 -2.7994,3.454819 -2.35331,1.734117 -4.48856,2.56914 l -11.8762,4.644382 z m 10.28508,2.732531 5.52771,14.134972 1.95878,-0.766013 q 2.50582,-0.979943 3.35069,-1.941051 0.83797,-0.978753 0.89967,-2.589827 0.0548,-1.62872 -1.15977,-4.734532 -1.60793,-4.111671 -3.54257,-5.104806 -1.93463,-0.993136 -5.04044,0.221443 z"
           style="font-size:38.8056px;font-family:'Arial Black';-inkscape-font-specification:'Arial Black, '"
           id="path141893" />
        <path
           d="m 216.5027,21.829607 7.98448,-0.699021 11.75968,14.396115 -1.34021,-15.308312 8.05999,-0.705631 2.42261,27.671992 -8.05999,0.705631 -11.69312,-14.287817 1.33028,15.195057 -8.04111,0.703978 z"
           style="font-size:38.8056px;font-family:'Arial Black';-inkscape-font-specification:'Arial Black, '"
           id="path141895" />
        <path
           d="m 269.94171,38.468836 0.52614,-5.755155 13.20855,1.207516 -1.07814,11.79335 q -4.02907,2.238373 -7.04007,2.914462 -2.99041,0.658945 -6.99071,0.293241 -4.92491,-0.450232 -7.88482,-2.414234 -2.94105,-1.962276 -4.35456,-5.440261 -1.39464,-3.47626 -1.00133,-7.778474 0.414,-4.528646 2.5874,-7.697746 2.17512,-3.187968 5.93787,-4.59447 2.93401,-1.082696 7.68909,-0.64799 4.58525,0.41918 6.77368,1.456435 2.20729,1.03898 3.53754,2.930107 1.35085,1.873983 1.86067,4.622433 l -8.38046,0.717975 q -0.3663,-1.612732 -1.51691,-2.555111 -1.13174,-0.940653 -3.01867,-1.113156 -2.81154,-0.257028 -4.67031,1.551858 -1.83818,1.791742 -2.22459,6.018479 -0.41055,4.490908 1.09287,6.56911 1.52229,2.079927 4.54138,2.35593 1.43408,0.131102 2.77401,-0.164997 1.33994,-0.296099 3.11074,-1.142648 l 0.23805,-2.603972 z"
           style="font-size:38.8056px;font-family:'Arial Black';-inkscape-font-specification:'Arial Black, '"
           id="path141897" />
        <path
           d="m 334.04521,53.301452 6.17134,4.865264 q -1.86178,2.668552 -4.15409,4.048535 -2.29231,1.379984 -4.94459,1.499093 -2.63465,0.126032 -6.10929,-1.23795 -4.21542,-1.65478 -6.41861,-3.924197 -2.17864,-2.28013 -2.90713,-6.128349 -0.72849,-3.84822 1.16169,-8.663323 2.52026,-6.420138 7.27447,-8.52321 4.77878,-2.113787 11.02254,0.337227 4.88566,1.917883 6.89696,4.987265 2.02894,3.076306 1.78073,7.701392 l -7.67131,-1.199747 q 0.0935,-1.327128 -0.0975,-2.033145 -0.3102,-1.180265 -1.08641,-2.054929 -0.77621,-0.874664 -1.97558,-1.34548 -2.71621,-1.066261 -5.02105,0.55307 -1.73053,1.193399 -3.09451,4.668034 -1.6894,4.303609 -1.01427,6.421002 0.68205,2.099756 3.04551,3.02754 2.29291,0.90009 3.96243,0.0695 1.68717,-0.823663 3.1787,-3.067596 z"
           style="font-size:38.8056px;font-family:'Arial Black';-inkscape-font-specification:'Arial Black, '"
           id="path141899" />
        <path
           d="m 361.18195,75.282143 -8.36607,-5.059883 -3.52419,3.227396 -7.50676,-4.540167 23.30909,-18.365615 8.00937,4.844152 -5.44202,29.1718 -7.68511,-4.648032 z m 1.56823,-6.071186 2.54119,-10.13298 -7.77809,6.96565 z"
           style="font-size:38.8056px;font-family:'Arial Black';-inkscape-font-specification:'Arial Black, '"
           id="path141901" />
        <path
           d="m 390.85903,67.631291 6.55232,5.544636 -13.525,15.98303 10.22625,8.653548 -4.41857,5.221605 -16.77857,-14.198184 z"
           style="font-size:38.8056px;font-family:'Arial Black';-inkscape-font-specification:'Arial Black, '"
           id="path141903" />
        <path
           d="m 409.96215,118.54269 -6.38118,-7.4077 -4.35219,1.97345 -5.72574,-6.64684 27.85992,-10.219306 6.10911,7.091866 -14.2319,26.03964 -5.86178,-6.80475 z m 3.37602,-5.28404 5.56223,-8.84288 -9.55665,4.20589 z"
           style="font-size:38.8056px;font-family:'Arial Black';-inkscape-font-specification:'Arial Black, '"
           id="path141905" />
        <path
           d="m 441.16175,120.82702 5.6836,9.75856 -12.41175,12.27221 16.78888,-4.75681 5.66452,9.7258 -24.00342,13.98012 -3.52841,-6.05816 18.30548,-10.66151 -21.04238,5.96234 -3.19464,-5.48509 15.57812,-15.34431 -18.30548,10.66151 -3.53794,-6.07454 z"
           style="font-size:38.8056px;font-family:'Arial Black';-inkscape-font-specification:'Arial Black, '"
           id="path141907" />
        <path
           d="m 462.74551,161.20979 5.42413,15.12474 q 1.35604,3.78118 0.20607,6.46824 -1.14357,2.7049 -3.90811,3.69634 -2.31865,0.83153 -4.49548,-0.0183 -1.45123,-0.56656 -2.75854,-2.19121 0.33287,3.06112 -0.85252,4.97583 -1.16117,1.92615 -3.65817,2.82164 -2.03328,0.72919 -3.99534,0.36596 -1.96207,-0.36322 -3.49583,-1.6651 -0.95318,-0.80556 -1.9563,-2.76073 -1.33536,-2.60094 -1.65518,-3.49273 l -5.00197,-13.94758 z m -7.33242,11.82887 1.26009,3.51365 q 0.67801,1.89059 1.58235,2.39159 0.92858,0.51243 2.15924,0.0711 1.14149,-0.40936 1.51493,-1.38874 0.37984,-0.96153 -0.27899,-2.79862 l -1.27928,-3.56715 z m -10.2734,3.68432 1.47756,4.12006 q 0.74838,2.08679 1.78667,2.68065 1.05613,0.58747 2.30463,0.13973 1.15933,-0.41577 1.5479,-1.52135 0.4128,-1.09413 -0.34837,-3.21659 l -1.47117,-4.10223 z"
           style="font-size:38.8056px;font-family:'Arial Black';-inkscape-font-specification:'Arial Black, '"
           id="path141909" />
        <path
           d="m 454.6728,218.39403 -1.71335,-9.6259 -4.75022,-0.52095 -1.53737,-8.63719 29.17756,5.41105 1.6403,9.2155 -25.51844,15.14658 -1.57389,-8.8424 z m 5.59814,-2.82479 9.29319,-4.77196 -10.36569,-1.25356 z"
           style="font-size:38.8056px;font-family:'Arial Black';-inkscape-font-specification:'Arial Black, '"
           id="path141911" />
      </g>
      <g
         aria-label="2001"
         id="text138549"
         style="font-size:38.8056px;line-height:1.25;letter-spacing:1.32292px;word-spacing:0px;display:inline;fill:#25274d;stroke-width:0.336591">
        <path
           d="m 445.55274,372.9741 -13.28007,18.96763 q -2.58123,-2.29297 -3.89724,-5.66621 -1.32067,-3.39964 -1.50472,-10.30577 -0.11912,-4.22377 -0.64675,-5.74972 -0.52763,-1.52595 -1.48998,-2.19973 -1.03996,-0.72812 -2.31286,-0.46281 -1.27755,0.23893 -2.09261,1.40307 -0.84767,1.2107 -0.63047,2.51929 0.22806,1.29308 1.96801,2.90452 l -4.94615,5.97426 q -2.40893,-2.24173 -3.2035,-4.2784 -0.8101,-2.04755 -0.34108,-4.40232 0.46436,-2.38116 2.70307,-5.57864 2.33651,-3.33719 4.39031,-4.65178 2.06466,-1.3301 4.38687,-1.2771 2.31756,0.0266 4.27331,1.39591 2.07992,1.45625 3.11505,4.0083 1.04599,2.53654 1.0626,7.3362 -0.0174,2.83292 0.054,3.85433 0.0822,1.00589 0.32729,2.47282 l 6.91173,-9.87186 z"
           style="font-size:38.8056px;font-family:'Arial Black';-inkscape-font-specification:'Arial Black, '"
           id="path141765" />
        <path
           d="m 435.6647,362.3968 q -6.97615,-3.75022 -8.4175,-7.75192 -1.43237,-4.01839 1.33095,-9.15871 1.32783,-2.47003 2.79766,-3.72356 1.45314,-1.2625 2.97613,-1.73453 1.50629,-0.48099 2.89614,-0.46526 1.38213,-0.01 3.00583,0.41117 3.1049,0.78712 6.0756,2.3841 6.65906,3.57976 8.53539,7.49262 1.87633,3.91285 -1.08437,9.42034 -1.65979,3.08753 -3.66725,4.46078 -2.00746,1.37325 -4.56499,1.56878 -1.82735,0.15782 -4.43301,-0.59756 -2.61338,-0.78103 -5.45058,-2.30625 z m 3.64131,-6.73353 q 4.67302,2.51212 6.83165,2.61844 2.1509,0.0807 2.99426,-1.48814 0.55625,-1.03474 0.24234,-2.17155 -0.32163,-1.16247 -1.70202,-2.3563 -1.37142,-1.21052 -4.6926,-2.99592 -4.87329,-2.61977 -6.99082,-2.68249 -2.12525,-0.0884 -3.01346,1.56387 -0.90615,1.68563 0.40912,3.36075 1.29858,1.66615 5.92153,4.15134 z"
           style="font-size:38.8056px;font-family:'Arial Black';-inkscape-font-specification:'Arial Black, '"
           id="path141767" />
        <path
           d="m 447.62112,339.79987 q -7.37102,-2.89811 -9.27591,-6.70107 -1.89795,-3.82059 0.2375,-9.25186 1.02612,-2.60984 2.33724,-4.02854 1.29349,-1.42563 2.74989,-2.07461 1.43877,-0.65591 2.82071,-0.8048 1.37124,-0.17346 3.03336,0.0525 3.17625,0.41406 6.3151,1.64818 7.03597,2.76638 9.36227,6.42963 2.3263,3.66324 0.0383,9.48247 -1.28265,3.26229 -3.11345,4.8635 -1.8308,1.60121 -4.34721,2.0981 -1.79581,0.37301 -4.47257,-0.0686 -2.68746,-0.4662 -5.68524,-1.64486 z m 2.81867,-7.11721 q 4.93752,1.94132 7.09356,1.79138 2.14533,-0.1745 2.79706,-1.8321 0.42986,-1.09331 -0.0164,-2.18497 -0.45697,-1.11623 -1.96897,-2.13827 -1.50506,-1.03968 -5.01423,-2.4194 -5.14913,-2.02451 -7.25919,-1.83614 -2.12077,0.1638 -2.80716,1.90957 -0.70026,1.78104 0.80404,3.28869 1.48667,1.50073 6.37129,3.42124 z"
           style="font-size:38.8056px;font-family:'Arial Black';-inkscape-font-specification:'Arial Black, '"
           id="path141769" />
        <path
           d="m 447.45646,295.42153 27.33191,7.14953 -1.97559,7.55248 -17.90964,-4.68484 q 0.91366,2.19756 1.32449,4.14607 0.41562,1.93018 0.52776,4.72108 l -6.12265,-1.60158 q -0.23081,-4.13417 -1.40251,-6.69301 -1.1717,-2.55884 -3.38973,-4.41209 z"
           style="font-size:38.8056px;font-family:'Arial Black';-inkscape-font-specification:'Arial Black, '"
           id="path141771" />
      </g>
      <g
         aria-label="1742"
         id="text134861"
         style="font-size:38.8056px;line-height:1.25;letter-spacing:1.32292px;word-spacing:0px;display:inline;fill:#25274d;stroke-width:0.336591">
        <path
           d="m 56.716144,310.62996 -27.207232,7.61025 -2.1029,-7.51803 17.827945,-4.98673 q -1.897233,-1.43685 -3.23466,-2.91223 -1.332322,-1.45714 -2.836652,-3.81058 l 6.094712,-1.70477 q 2.284249,3.45353 4.586502,5.07222 2.302252,1.61869 5.152195,2.10042 z"
           style="font-size:38.8056px;font-family:'Arial Black';-inkscape-font-specification:'Arial Black, '"
           id="path141774" />
        <path
           d="m 58.120863,317.09704 8.571815,20.83483 -4.81882,1.98254 q -3.570654,-1.70676 -7.176664,-2.35404 -4.377918,-0.78046 -9.16228,-0.30779 -3.729981,0.34622 -8.395096,1.85575 L 34.212856,331.994 q 6.636796,-1.74703 11.637436,-1.69401 5.000639,0.053 11.462172,1.96368 l -5.219508,-12.68665 z"
           style="font-size:38.8056px;font-family:'Arial Black';-inkscape-font-specification:'Arial Black, '"
           id="path141776" />
        <path
           d="m 53.98245,361.66909 -6.850693,-12.27747 5.54306,-3.09297 21.444661,4.13419 3.277623,5.87399 -14.90835,8.3187 1.698824,3.04455 -5.228678,2.91754 -1.698824,-3.04454 -4.533727,2.52977 -3.277623,-5.87399 z m 5.228678,-2.91755 7.627913,-4.25629 -11.247147,-2.22992 z"
           style="font-size:38.8056px;font-family:'Arial Black';-inkscape-font-specification:'Arial Black, '"
           id="path141778" />
        <path
           d="M 69.750375,394.5371 56.151756,375.79653 q 3.009504,-1.69215 6.627511,-1.83591 3.644471,-0.13956 10.232932,1.93907 4.031628,1.2651 5.646219,1.26406 1.614591,-10e-4 2.565422,-0.691 1.027511,-0.74558 1.191894,-2.03541 0.190847,-1.28561 -0.643766,-2.43581 -0.867997,-1.19621 -2.175868,-1.41772 -1.296743,-0.20619 -3.387584,0.91299 l -4.034204,-6.62431 q 2.904865,-1.54598 5.089322,-1.63278 2.199793,-0.0979 4.272795,1.11351 2.099467,1.21564 4.391869,4.37486 2.392556,3.29723 2.965344,5.6675 0.583917,2.38559 -0.223638,4.56351 -0.781091,2.18213 -2.713425,3.58428 -2.055022,1.49117 -4.805137,1.63727 -2.738987,0.16143 -7.28157,-1.38841 -2.672324,-0.94043 -3.66113,-1.20618 -0.977678,-0.25042 -2.444335,-0.49719 l 7.077514,9.75369 z"
           style="font-size:38.8056px;font-family:'Arial Black';-inkscape-font-specification:'Arial Black, '"
           id="path141780" />
      </g>
      <g
         aria-label="LAGUNA"
         id="text58783-6"
         style="font-size:38.8056px;line-height:1.25;letter-spacing:21.6958px;word-spacing:0px;display:inline;fill:#25274d;stroke-width:0.336591">
        <path
           d="m 132.42749,415.71578 7.23456,4.61921 -11.26761,17.6472 11.29101,7.20923 -3.68109,5.76528 -18.52557,-11.82844 z"
           style="font-size:38.8056px;font-family:'Arial Black';-inkscape-font-specification:'Arial Black, '"
           id="path141752" />
        <path
           d="m 176.57887,464.00778 -9.17091,-3.38938 -2.85148,3.83472 -8.22894,-3.04124 19.42247,-22.43607 8.7799,3.24487 0.16347,29.67461 -8.42444,-3.11349 z m 0.39379,-6.25808 0.58239,-10.43053 -6.3231,8.30888 z"
           style="font-size:38.8056px;font-family:'Arial Black';-inkscape-font-specification:'Arial Black, '"
           id="path141754" />
        <path
           d="m 223.00012,469.0416 0.71864,-5.7343 13.16069,1.64934 -1.47263,11.75061 q -4.1018,2.10214 -7.13376,2.67698 -3.0108,0.55839 -6.99661,0.0589 -4.90705,-0.61497 -7.79951,-2.67703 -2.87366,-2.05971 -4.16986,-5.58309 -1.2774,-3.52103 -0.74018,-7.80766 0.56549,-4.51223 2.84383,-7.60674 2.2807,-3.11331 6.08846,-4.39297 2.96863,-0.98379 7.70648,-0.39003 4.56864,0.57256 6.72108,1.68255 2.17125,1.11234 3.4374,3.04697 1.28731,1.91819 1.70477,4.68217 l -8.39982,0.43682 q -0.31206,-1.6241 -1.43045,-2.6045 -1.09959,-0.97804 -2.97969,-1.21366 -2.80134,-0.35107 -4.71967,1.39453 -1.89718,1.72915 -2.42497,5.94057 -0.56077,4.47464 0.87218,6.60204 1.45176,2.12976 4.45991,2.50675 1.42888,0.17907 2.77798,-0.072 1.34911,-0.25105 3.14727,-1.0378 l 0.32516,-2.59453 z"
           style="font-size:38.8056px;font-family:'Arial Black';-inkscape-font-specification:'Arial Black, '"
           id="path141756" />
        <path
           d="m 276.71502,451.22922 8.51377,-0.93096 1.80013,16.46247 q 0.26775,2.44865 -0.2656,4.71804 -0.51657,2.2485 -1.9761,4.0664 -1.44274,1.79701 -3.16005,2.65193 -2.3854,1.19482 -5.87002,1.57585 -2.01543,0.22039 -4.43847,0.19942 -2.4042,-0.023 -4.09587,-0.67672 -1.69372,-0.67254 -3.19995,-2.07084 -1.48739,-1.40036 -2.15631,-2.98552 -1.07945,-2.55051 -1.3019,-4.58477 l -1.80012,-16.46247 8.51377,-0.93095 1.84338,16.85801 q 0.24715,2.2603 1.63037,3.40519 1.39999,1.124 3.62261,0.88097 2.20379,-0.24098 3.31101,-1.62008 1.124,-1.39999 0.87273,-3.69795 z"
           style="font-size:38.8056px;font-family:'Arial Black';-inkscape-font-specification:'Arial Black, '"
           id="path141758" />
        <path
           d="m 305.75248,445.57618 7.55335,-2.68095 14.99692,10.98318 -5.14006,-14.48172 7.62478,-2.7063 9.29141,26.17781 -7.62478,2.7063 -14.90532,-10.89505 5.10203,14.37458 -7.60692,2.69996 z"
           style="font-size:38.8056px;font-family:'Arial Black';-inkscape-font-specification:'Arial Black, '"
           id="path141760" />
        <path
           d="m 376.2432,437.7495 -8.22989,5.27849 1.34316,4.58606 -7.38457,4.73631 -6.2085,-29.01834 7.879,-5.05343 23.78474,17.7453 -7.56001,4.84884 z m -4.75798,-4.08414 -7.97481,-6.74814 2.82315,10.05231 z"
           style="font-size:38.8056px;font-family:'Arial Black';-inkscape-font-specification:'Arial Black, '"
           id="path141762" />
      </g>
    </g>
  </g>
</svg>
